<?xml version="1.0" standalone="no"?>
<!DOCTYPE svg PUBLIC "-//W3C//DTD SVG 20010904//EN"
 "http://www.w3.org/TR/2001/REC-SVG-20010904/DTD/svg10.dtd">
<svg version="1.0" xmlns="http://www.w3.org/2000/svg"
 width="1280.000000pt" height="1200.000000pt" viewBox="0 0 1280.000000 1200.000000"
 preserveAspectRatio="xMidYMid meet">
<metadata>
Created by potrace 1.15, written by Peter Selinger 2001-2017
</metadata>
<g transform="translate(0.000000,1200.000000) scale(0.100000,-0.100000)"
fill="#000000" stroke="none">
<path d="M8205 11990 c-305 -45 -611 -232 -834 -510 -217 -270 -355 -586 -412
-950 -20 -125 -17 -461 4 -570 18 -90 50 -213 62 -243 6 -13 -11 -8 -76 23
-287 136 -599 139 -869 7 -47 -22 -87 -42 -90 -44 -3 -2 -4 47 -2 108 5 129
-21 385 -50 502 -91 372 -352 709 -673 869 -236 118 -501 148 -750 84 -515
-133 -907 -653 -943 -1254 -17 -274 32 -555 134 -766 13 -27 24 -51 24 -52 0
-1 -17 3 -38 9 -20 6 -104 11 -187 10 -120 0 -165 -4 -227 -21 -161 -44 -321
-123 -439 -217 l-53 -42 -62 55 -63 56 38 45 c207 247 340 586 372 943 10 113
9 143 -15 342 -28 234 -40 290 -87 418 -160 434 -493 777 -889 916 -151 53
-238 67 -420 67 -182 0 -270 -14 -420 -67 -706 -249 -1126 -1075 -960 -1889
45 -220 137 -439 262 -621 117 -171 310 -352 472 -443 l65 -36 -84 -124 c-589
-877 -949 -2355 -992 -4077 l-6 -268 1137 0 1138 0 -7 -27 c-18 -71 -69 -336
-95 -498 -73 -449 -112 -867 -126 -1383 l-7 -242 1082 0 1083 0 -6 -28 c-24
-119 -77 -494 -100 -717 -38 -352 -62 -745 -70 -1153 l-4 -202 3031 0 3030 0
-7 293 c-14 591 -51 1080 -122 1602 -13 99 -24 186 -24 193 0 9 198 12 957 12
l956 0 -6 293 c-11 494 -53 965 -128 1427 -20 122 -64 363 -76 408 l-5 22 587
0 588 0 -7 253 c-26 966 -161 1807 -410 2562 -144 435 -355 873 -555 1152
l-59 81 72 26 c513 188 844 817 795 1510 -8 112 -20 181 -60 341 -58 232 -70
267 -156 436 -205 404 -562 690 -935 749 -120 19 -312 8 -421 -24 -431 -128
-742 -533 -844 -1096 -27 -148 -24 -478 5 -635 32 -174 91 -374 139 -468 8
-16 13 -30 11 -32 -2 -2 -30 3 -63 10 -387 91 -780 -33 -1070 -336 -44 -46
-100 -114 -125 -151 -25 -37 -47 -67 -50 -68 -3 0 -16 19 -29 43 -71 126 -210
313 -320 429 l-79 84 78 58 c95 70 245 222 322 326 182 246 286 492 339 800
39 223 48 346 38 490 -24 331 -122 598 -305 830 -217 275 -573 420 -909 370z"/>
</g>
</svg>
