<?xml version="1.0" standalone="no"?>
<!DOCTYPE svg PUBLIC "-//W3C//DTD SVG 20010904//EN"
 "http://www.w3.org/TR/2001/REC-SVG-20010904/DTD/svg10.dtd">
<svg version="1.0" xmlns="http://www.w3.org/2000/svg"
 width="1280.000000pt" height="863.000000pt" viewBox="0 0 1280.000000 863.000000"
 preserveAspectRatio="xMidYMid meet">
<metadata>
Created by potrace 1.15, written by Peter Selinger 2001-2017
</metadata>
<g transform="translate(0.000000,863.000000) scale(0.100000,-0.100000)"
fill="#000000" stroke="none">
<path d="M6163 8616 c-94 -30 -185 -104 -249 -201 -26 -41 -1222 -2137 -2911
-5104 -297 -523 -317 -567 -311 -696 8 -174 116 -304 293 -350 53 -13 419 -15
3281 -15 3128 0 3224 1 3283 19 124 39 222 124 260 227 28 73 28 189 1 276
-13 43 -259 484 -763 1368 -409 718 -1123 1971 -1586 2785 -464 814 -861 1503
-882 1531 -81 105 -187 165 -303 171 -42 2 -88 -3 -113 -11z"/>
<path d="M4636 1780 c-263 -67 -414 -235 -476 -530 -18 -84 -24 -362 -12 -471
25 -211 100 -413 195 -528 131 -157 314 -241 527 -243 296 -1 520 144 645 416
98 213 129 561 75 836 -46 231 -147 378 -315 461 -127 62 -176 72 -380 75
-153 3 -192 1 -259 -16z m357 -372 c114 -25 223 -136 263 -269 26 -88 26 -339
0 -449 -51 -219 -177 -343 -359 -357 -206 -16 -346 118 -402 383 -21 98 -24
298 -6 379 30 135 101 234 206 286 97 47 175 55 298 27z"/>
<path d="M4 1761 c-2 -2 -4 -388 -4 -858 l0 -853 175 0 175 0 -2 856 -3 855
-168 2 c-93 1 -171 0 -173 -2z"/>
<path d="M664 1761 c-2 -2 -4 -388 -4 -858 l0 -853 168 2 167 3 5 624 5 623
54 -203 c30 -112 78 -292 107 -399 29 -107 80 -296 113 -419 33 -123 63 -227
67 -230 3 -3 74 -8 158 -9 118 -3 155 -1 163 10 6 7 87 291 179 631 l169 619
3 -626 2 -626 170 0 170 0 -2 855 -3 855 -268 1 c-148 1 -272 -2 -277 -7 -7
-7 -256 -998 -285 -1131 -9 -45 -22 -49 -30 -11 -4 18 -24 105 -45 193 -22 88
-55 228 -75 310 -20 83 -52 218 -72 300 -72 303 -82 338 -95 347 -12 9 -535 8
-544 -1z"/>
<path d="M2760 1762 l-65 -7 0 -850 0 -850 172 -3 173 -2 2 269 3 270 210 5
c124 4 239 12 280 21 283 60 448 301 432 630 -14 287 -120 435 -354 496 -70
18 -116 20 -433 24 -195 1 -384 0 -420 -3z m735 -386 c92 -40 131 -112 123
-226 -9 -126 -84 -207 -213 -231 -57 -11 -337 -5 -357 7 -10 6 -11 458 0 468
4 4 97 6 207 4 162 -3 208 -7 240 -22z"/>
<path d="M5874 1761 c-2 -2 -4 -388 -4 -858 l0 -853 175 0 175 0 2 361 3 362
258 -362 259 -361 219 0 c144 0 219 4 219 10 0 6 -121 165 -268 353 -147 188
-271 347 -275 353 -4 7 26 16 88 26 269 44 405 208 405 489 0 156 -36 263
-115 348 -56 60 -109 92 -190 118 -55 16 -101 18 -503 18 -244 0 -445 -2 -448
-4z m811 -382 c71 -36 97 -83 93 -169 -4 -81 -26 -114 -100 -156 l-53 -29
-202 -3 -203 -3 0 196 0 196 208 -3 c200 -3 209 -4 257 -29z"/>
<path d="M7860 1760 l-605 -5 0 -175 0 -175 218 -3 217 -2 0 -675 0 -675 175
0 175 0 0 675 0 675 218 2 217 3 3 168 c1 92 -1 173 -5 180 -6 9 -147 11 -613
7z"/>
<path d="M8870 1747 c-5 -12 -36 -120 -70 -239 -66 -240 -154 -556 -361 -1295
-23 -84 -41 -155 -38 -157 2 -2 83 -5 179 -7 l175 -4 60 207 c33 114 63 210
66 213 4 3 124 3 267 -1 253 -7 260 -8 265 -28 11 -53 98 -363 105 -375 7 -12
40 -14 183 -12 95 1 175 4 176 5 3 2 -85 327 -326 1211 l-136 500 -268 2
c-266 1 -268 1 -277 -20z m371 -617 c49 -178 89 -326 89 -327 0 -2 -88 -3
-196 -3 -153 0 -195 3 -191 13 2 6 46 164 98 350 74 270 95 334 102 315 5 -12
49 -169 98 -348z"/>
<path d="M10064 1761 c-2 -2 -4 -388 -4 -858 l0 -853 170 0 170 0 2 637 3 637
239 -560 c131 -307 253 -593 270 -634 l31 -75 223 -3 222 -2 0 853 c0 470 -2
856 -4 858 -2 2 -78 2 -168 -1 l-163 -5 0 -558 c0 -306 -3 -557 -6 -557 -4 0
-10 10 -13 23 -3 12 -107 263 -230 557 l-223 535 -257 5 c-142 3 -260 3 -262
1z"/>
<path d="M12183 1762 l-603 -2 0 -180 0 -180 215 0 215 0 2 -672 3 -673 173
-3 172 -2 0 675 0 675 220 0 220 0 0 179 c0 99 -3 181 -7 183 -5 2 -279 2
-610 0z"/>
</g>
</svg>
